# AST/ASF file generated using VICON BodyLanguage
# -----------------------------------------------
:version 1.10
:name VICON
:units
  mass 1.0
  length 0.45
  angle deg
:documentation
   .ast/.asf automatically generated from VICON data using
   VICON BodyBuilder and BodyLanguage model FoxedUp or BRILLIANT.MOD
:root
   order TX TY TZ RX RY RZ
   axis XYZ
   position 0 0 0  
   orientation 0 0 0 
:bonedata
  begin
     id 1 
     name lhipjoint
     direction 0.623415 -0.642378 0.445763 
     length 2.49859 
     axis 0 0 0  XYZ
  end
  begin
     id 2 
     name lfemur
     direction 0.34202 -0.939693 0  
     length 6.69689  
     axis 0 0 20  XYZ
    dof rx ry rz
    limits (-160.0 20.0)
           (-70.0 70.0)
           (-60.0 70.0)
  end
  begin
     id 3 
     name ltibia
     direction 0.34202 -0.939693 0   
     length 7.37574   
     axis 0 0 20   XYZ
    dof rx
    limits (-10.0 170.0)
  end
  begin
     id 4 
     name lfoot
     direction 0.084323 -0.231675 0.969132   
     length 2.09111   
     axis -90 7.62852e-016 20   XYZ
    dof rx rz
    limits (-45.0 90.0)
           (-70.0 20.0)
  end
  begin
     id 5 
     name ltoes
     direction 1.5357e-011 -4.21957e-011 1   
     length 1.04989   
     axis -90 7.62852e-016 20   XYZ
    dof rx
    limits (-90.0 20.0)
  end
  begin
     id 6 
     name rhipjoint
     direction -0.605402 -0.653903 0.45376   
     length 2.45455  
     axis 0 0 0  XYZ 
  end
  begin
     id 7 
     name rfemur
     direction -0.34202 -0.939693 0   
     length 6.64523   
     axis 0 0 -20   XYZ
    dof rx ry rz
    limits (-160.0 20.0)
           (-70.0 70.0)
           (-70.0 60.0)
  end
  begin
     id 8 
     name rtibia
     direction -0.34202 -0.939693 0   
     length 7.3339   
     axis 0 0 -20   XYZ
    dof rx
    limits (-10.0 170.0)
 end
 begin
     id 9 
     name rfoot
     direction -0.120854 -0.332043 0.93549   
     length 2.23135  
     axis -90 -7.62852e-016 -20   XYZ
    dof rx rz
    limits (-45.0 90.0)
           (-20.0 70.0)
  end
  begin
     id 10 
     name rtoes
     direction -1.53563e-011 -4.21914e-011 1   
     length 1.10614   
     axis -90 -7.62852e-016 -20   XYZ
    dof rx
    limits (-90.0 20.0)
  end
  begin
     id 11 
     name lowerback
     direction 0.0319682 0.998615 -0.0417941   
     length 2.02718   
     axis 0 0 0   XYZ
    dof rx ry rz
    limits (-20.0 45.0)
           (-30.0 30.0)
           (-30.0 30.0)
  end
  begin
     id 12 
     name upperback
     direction 7.63181e-005 0.995808 0.0914691   
     length 1.97539   
     axis 0 0 0   XYZ
    dof rx ry rz
    limits (-20.0 45.0)
           (-30.0 30.0)
           (-30.0 30.0)
  end
  begin
     id 13 
     name thorax
     direction -0.016423 0.993627 0.111514   
     length 2.00349   
     axis 0 0 0   XYZ
    dof rx ry rz
    limits (-20.0 45.0)
           (-30.0 30.0)
           (-30.0 30.0)
  end
  begin
     id 14 
     name lowerneck
     direction -0.174763 0.981668 -0.0760716   
     length 1.71436   
     axis 0 0 0   XYZ
    dof rx ry rz
    limits (-20.0 45.0)
           (-30.0 30.0)
           (-30.0 30.0)
  end
  begin
     id 15 
     name upperneck
     direction 0.345458 0.934587 -0.0848868   
     length 1.72805   
     axis 0 0 0   XYZ
    dof rx ry rz
    limits (-20.0 45.0)
           (-30.0 30.0)
           (-30.0 30.0)
  end
  begin
     id 16
     name head
     direction 0.13001 0.989848 -0.0574291  
     length 1.767  
     axis 0 0 0   XYZ
    dof rx ry rz
    limits (-20.0 45.0)
           (-30.0 30.0)
           (-30.0 30.0)
  end
  begin
     id 17 
     name lclavicle
     direction 0.952951 0.290122 0.0878234  
     length 3.54654  
     axis 0 0 0   XYZ
    dof ry rz
    limits (-20.0 10.0)
           (0.0 20.0)
  end
  begin
     id 18 
     name lhumerus
     direction 1 -4.48957e-011 -4.56525e-028   
     length 5.19807   
     axis 180 -30 -90   XYZ
    dof rx ry rz
    limits (-60.0 90.0)
           (-90.0 90.0)
           (-90.0 90.0)
  end
  begin
     id 19
     name lradius
     direction 1 -4.48979e-011 -2.0317e-027   
     length 3.0937   
     axis 180 -30 -90   XYZ
    dof rx
    limits (-10.0 170.0)
  end
  begin
     id 20
     name lwrist
     direction 1 -4.48953e-011 -3.05809e-027   
     length 1.54685   
     axis 8.48514e-016 90 90   XYZ
    dof ry
    limits (-180.0 0.0)
 end
  begin
     id 21 
     name lhand
     direction 1 -4.48952e-011 -6.11639e-027   
     length 0.672632   
     axis 3.9013e-015 90 90   XYZ
    dof rx rz
    limits (-90.0 90.0)
           (-45.0 45.0)
  end
  begin
     id 22 
     name lfingers
     direction 1 -4.48925e-011 -1.22426e-026   
     length 0.542293   
     axis 7.80276e-015 90 90   XYZ
    dof rx
    limits (0.0 90.0)
  end
  begin
     id 23
     name lthumb
     direction 0.707107 -6.3486e-011 0.707107   
     length 0.778628   
     axis -90 45 5.37419e-014   XYZ
    dof rx rz
    limits (-45.0 45.0)
           (-45.0 45.0)
  end
  begin
     id 24 
     name rclavicle
     direction -0.960732 0.273675 -0.0457849   
     length 3.52079  
     axis 0 0 0   XYZ 
    dof ry rz
    limits (-10.0 20.0)
           (-20.0 0.0)
  end
  begin
     id 25 
     name rhumerus
     direction -1 -4.48976e-011 -1.63613e-027  
     length 5.45222   
     axis 180 30 90   XYZ
    dof rx ry rz
    limits (-90.0 60.0)
           (-90.0 90.0)
           (-90.0 90.0)
  end
  begin
     id 26 
     name rradius
     direction -1 -4.48957e-011 -7.00033e-028   
     length 3.01284   
     axis 180 30 90   XYZ
    dof rx
    limits (-10.0 170.0)
  end
  begin
     id 27 
     name rwrist
     direction -1 -4.48983e-011 -3.05543e-027   
     length 1.50642   
     axis 8.48514e-016 -90 -90   XYZ
    dof ry
    limits (-180.0 0.0)
  end
  begin
     id 28
     name rhand
     direction -1 -4.48984e-011 -6.11072e-027   
     length 0.622296   
     axis 3.9013e-015 -90 -90   XYZ
    dof rx rz
    limits (-90.0 90.0)
           (-45.0 45.0)
  end
  begin
     id 29
     name rfingers
     direction -1 -4.48865e-011 -1.22637e-026   
     length 0.501711   
     axis 7.80276e-015 -90 -90   XYZ
    dof rx
    limits (0.0 90.0)
  end
  begin
     id 30
     name rthumb
     direction -0.707107 -6.34932e-011 0.707107   
     length 0.72036   
     axis -90 -45 -5.37419e-014   XYZ
    dof rx rz
    limits (-45.0 45.0)
           (-45.0 45.0)
  end
:hierarchy
  begin
    root lhipjoint rhipjoint lowerback
    lhipjoint lfemur
    lfemur ltibia
    ltibia lfoot
    lfoot ltoes
    rhipjoint rfemur
    rfemur rtibia
    rtibia rfoot
    rfoot rtoes
    lowerback upperback
    upperback thorax
    thorax lowerneck lclavicle rclavicle
    lowerneck upperneck
    upperneck head
    lclavicle lhumerus
    lhumerus lradius
    lradius lwrist
    lwrist lhand lthumb
    lhand lfingers
    rclavicle rhumerus
    rhumerus rradius
    rradius rwrist
    rwrist rhand rthumb
    rhand rfingers
  end

#!OML:ASF H:\Not Pregnant\Project 1\Capture day 1\Session 1\non-pregnant.ASF
:FULLY-SPECIFIED
:DEGREES
239
root 4.38662 12.2591 13.756 43.2454 -21.322 -12.0888
lowerback 30.8507 1.49023 2.6887
upperback 2.01601 2.55613 -1.11514
thorax -13.7452 0.903724 -3.66387
lowerneck 12.1432 -9.31469 -28.4057
upperneck -32.999 -11.1512 48.1847
head -5.77755 -8.5306 33.3226
rclavicle -1.27222e-014 1.98785e-015
rhumerus -51.8486 12.1684 -87.3922
rradius 53.1771
rwrist 2.6365
rhand -58.868 -37.5979
rfingers 7.12502
rthumb -31.0735 -64.9854
lclavicle -1.27222e-014 1.98785e-015
lhumerus -72.3145 -3.37574 65.6343
lradius 83.7687
lwrist -6.64346
lhand -41.7208 -269.474
lfingers 7.12502
lthumb -14.6262 -61.0622
rfemur -104.894 7.053 29.5515
rtibia 81.5873
rfoot -17.4924 6.71199
rtoes -17.1179
lfemur -108.973 12.7957 -16.0235
ltibia 87.2196
lfoot -16.0515 2.7981
ltoes -29.9832
240
root 4.40809 12.1941 13.7096 42.4937 -21.6618 -11.4935
lowerback 31.2142 1.50232 2.20837
upperback 2.0488 2.39499 -1.22665
thorax -13.8946 0.852539 -3.4703
lowerneck 12.1829 -9.34845 -28.4025
upperneck -33.1756 -11.1924 48.1387
head -5.82492 -8.54733 33.2773
rclavicle 1.74931e-014 -2.42517e-014
rhumerus -52.5689 12.4497 -87.3251
rradius 54.1007
rwrist 2.42454
rhand -58.9204 -38.2754
rfingers 7.12502
rthumb -31.1235 -65.6532
lclavicle 1.74931e-014 -2.42517e-014
lhumerus -72.9171 -3.42705 65.5495
lradius 84.9747
lwrist -6.11953
lhand -41.5689 -89.9598
lfingers 7.12502
lthumb -14.4798 -60.4851
rfemur -105.197 6.74866 28.9746
rtibia 82.3904
rfoot -17.501 6.52858
rtoes -16.9327
lfemur -108.967 12.5378 -16.7
ltibia 87.677
lfoot -16.032 2.89494
ltoes -30.3853
241
root 4.42521 12.1333 13.6634 41.5493 -22.3367 -10.2892
lowerback 31.6 1.62135 1.09333
upperback 2.04423 2.12576 -1.4711
thorax -14.118 0.786998 -3.03475
lowerneck 12.288 -9.37956 -28.4193
upperneck -33.3615 -11.2509 48.0784
head -5.8831 -8.57108 33.2367
rclavicle -3.97569e-015 4.05521e-014
rhumerus -53.358 12.6551 -87.2096
rradius 55.0389
rwrist 2.1823
rhand -58.9403 -38.9496
rfingers 7.12502
rthumb -31.1424 -66.3238
lclavicle -3.97569e-015 4.05521e-014
lhumerus -73.4952 -3.54764 65.5212
lradius 86.098
lwrist -5.68198
lhand -41.4466 -89.4948
lfingers 7.12502
lthumb -14.362 -60.0117
rfemur -105.681 6.28304 27.6728
rtibia 83.2553
rfoot -17.4617 6.44733
rtoes -16.8336
lfemur -108.823 12.0348 -18.0033
ltibia 88.0031
lfoot -15.9832 3.19278
ltoes -31.1854
242
root 4.43821 12.0711 13.6176 40.4891 -23.3244 -8.63346
lowerback 31.9632 1.87391 -0.561837
upperback 1.9986 1.80796 -1.82321
thorax -14.381 0.732007 -2.40301
lowerneck 12.4354 -9.41539 -28.4375
upperneck -33.5581 -11.3245 48.0089
head -5.94738 -8.60348 33.1867
rclavicle 5.24792e-014 -9.54166e-015
rhumerus -54.2014 12.7854 -87.051
rradius 55.9963
rwrist 1.90373
rhand -58.9328 -39.5198
rfingers 7.12502
rthumb -31.1353 -66.8954
lclavicle 5.24792e-014 -9.54166e-015
lhumerus -74.0402 -3.73133 65.5396
lradius 87.1393
lwrist -5.32965
lhand -41.3705 -89.1704
lfingers 7.12502
lthumb -14.2887 -59.682
rfemur -106.349 5.77788 25.7964
rtibia 84.1722
rfoot -17.3698 6.44836
rtoes -16.8039
lfemur -108.629 11.4427 -19.811
ltibia 88.2409
lfoot -15.9027 3.63283
ltoes -32.2418
243
root 4.44852 12.0036 13.5693 39.2391 -24.5353 -6.56752
lowerback 32.3381 2.22789 -2.65978
upperback 1.94095 1.42787 -2.2617
thorax -14.6485 0.679195 -1.60139
lowerneck 12.5694 -9.46116 -28.4468
upperneck -33.7466 -11.4048 47.9444
head -5.99883 -8.64263 33.115
rclavicle 2.70347e-014 5.1684e-015
rhumerus -55.0608 12.8583 -86.8538
rradius 56.9605
rwrist 1.63252
rhand -58.8821 -39.9414
rfingers 7.12502
rthumb -31.087 -67.3263
lclavicle 2.70347e-014 5.1684e-015
lhumerus -74.5449 -3.94565 65.5837
lradius 88.0941
lwrist -5.0348
lhand -41.3299 -88.9512
lfingers 7.12502
lthumb -14.2495 -59.46
rfemur -107.13 5.1939 23.479
rtibia 85.1457
rfoot -17.2316 6.54766
rtoes -16.8261
lfemur -108.359 10.7793 -22.0441
ltibia 88.4315
lfoot -15.8017 4.16091
ltoes -33.4117
244
root 4.45723 11.9226 13.5155 37.9007 -25.7597 -4.40323
lowerback 32.649 2.63481 -4.85239
upperback 1.8936 1.06107 -2.70258
thorax -14.846 0.64303 -0.760288
lowerneck 12.6894 -9.51729 -28.4438
upperneck -33.9336 -11.4906 47.8847
head -6.04113 -8.68765 33.0255
rclavicle 5.24792e-014 -7.15625e-015
rhumerus -55.9203 12.8489 -86.6041
rradius 57.93
rwrist 1.40243
rhand -58.8185 -40.1929
rfingers 7.12502
rthumb -31.0264 -67.5894
lclavicle 5.24792e-014 -7.15625e-015
lhumerus -75.0014 -4.20199 65.6575
lradius 88.9664
lwrist -4.75813
lhand -41.3214 -88.8135
lfingers 7.12502
lthumb -14.2414 -59.3217
rfemur -107.991 4.61341 21.1195
rtibia 86.1666
rfoot -17.0483 6.71713
rtoes -16.9049
lfemur -108.154 10.176 -24.3658
ltibia 88.6767
lfoot -15.6865 4.63295
ltoes -34.4161
245
root 4.46572 11.8299 13.4567 36.5677 -26.7926 -2.46305
lowerback 32.9149 3.02586 -6.80273
upperback 1.87838 0.761727 -3.05929
thorax -14.9595 0.625266 0.0073536
lowerneck 12.762 -9.5831 -28.4272
upperneck -34.1092 -11.5732 47.8364
head -6.06633 -8.73388 32.9178
rclavicle 1.59028e-015 -1.94809e-014
rhumerus -56.7462 12.7677 -86.2923
rradius 58.8874
rwrist 1.25919
rhand -58.726 -40.214
rfingers 7.12502
rthumb -30.9382 -67.6273
lclavicle 1.59028e-015 -1.94809e-014
lhumerus -75.4097 -4.48254 65.7536
lradius 89.756
lwrist -4.46262
lhand -41.3427 -88.7318
lfingers 7.12502
lthumb -14.2619 -59.2416
rfemur -108.798 4.10541 19.0967
rtibia 87.1954
rfoot -16.859 6.90899
rtoes -17.0245
lfemur -108.039 9.71817 -26.4187
ltibia 89.0286
lfoot -15.5889 4.95035
ltoes -35.0525
246
root 4.47453 11.7287 13.3948 35.3891 -27.5159 -1.02656
lowerback 33.0963 3.35357 -8.26697
upperback 1.90363 0.584037 -3.2689
thorax -14.9807 0.632458 0.620998
lowerneck 12.7861 -9.6496 -28.4244
upperneck -34.2607 -11.6518 47.8051
head -6.06861 -8.77754 32.8174
rclavicle 1.03368e-014 3.61788e-014
rhumerus -57.5314 12.6276 -85.9155
rradius 59.8379
rwrist 1.21402
rhand -58.6234 -40.0496
rfingers 7.12502
rthumb -30.8404 -67.4814
lclavicle 1.03368e-014 3.61788e-014
lhumerus -75.7767 -4.76999 65.8642
lradius 90.4798
lwrist -4.09917
lhand -41.3354 -88.64
lfingers 7.12502
lthumb -14.2548 -59.1492
rfemur -109.496 3.75938 17.6721
rtibia 88.1953
rfoot -16.682 7.06404
rtoes -17.1582
lfemur -108.078 9.46931 -27.9264
ltibia 89.5272
lfoot -15.5207 5.07167
ltoes -35.2748
247
root 4.48385 11.6302 13.332 34.3383 -27.9041 -0.10727
lowerback 33.3026 3.60382 -9.18615
upperback 1.95827 0.527157 -3.33144
thorax -14.9844 0.660746 1.05254
lowerneck 12.8245 -9.70783 -28.4394
upperneck -34.4082 -11.7288 47.7707
head -6.07489 -8.81648 32.735
rclavicle 1.43125e-014 1.27222e-014
rhumerus -58.3169 12.4071 -85.4676
rradius 60.8003
rwrist 1.23842
rhand -58.5135 -39.7542
rfingers 7.12502
rthumb -30.7356 -67.2057
lclavicle 1.43125e-014 1.27222e-014
lhumerus -76.1173 -5.10915 66.0077
lradius 91.1474
lwrist -3.65564
lhand -41.2845 -88.5163
lfingers 7.12502
lthumb -14.2058 -59.0221
rfemur -109.955 3.54317 16.8529
rtibia 89.1258
rfoot -16.5557 7.14896
rtoes -17.3137
lfemur -108.137 9.37794 -28.8547
ltibia 90.1247
lfoot -15.5145 5.01297
ltoes -35.0502
